<?xml version="1.0" encoding="UTF-8" standalone="no"?>
<svg
   xmlns:dc="http://purl.org/dc/elements/1.1/"
   xmlns:cc="http://creativecommons.org/ns#"
   xmlns:rdf="http://www.w3.org/1999/02/22-rdf-syntax-ns#"
   xmlns:svg="http://www.w3.org/2000/svg"
   xmlns="http://www.w3.org/2000/svg"
   xmlns:sodipodi="http://sodipodi.sourceforge.net/DTD/sodipodi-0.dtd"
   xmlns:inkscape="http://www.inkscape.org/namespaces/inkscape"
   version="1"
   viewBox="0 0 48 48"
   enable-background="new 0 0 48 48"
   id="svg44"
   sodipodi:docname="calendar_day.svg"
   inkscape:version="0.92.5 (2060ec1f9f, 2020-04-08)"
   inkscape:export-filename="/home/lliurex/Desarrollo/holiday-manager/holiday-manager/python3-holidaymanager/rsrc/calendar_day.png"
   inkscape:export-xdpi="96"
   inkscape:export-ydpi="96">
  <metadata
     id="metadata50">
    <rdf:RDF>
      <cc:Work
         rdf:about="">
        <dc:format>image/svg+xml</dc:format>
        <dc:type
           rdf:resource="http://purl.org/dc/dcmitype/StillImage" />
        <dc:title></dc:title>
      </cc:Work>
    </rdf:RDF>
  </metadata>
  <defs
     id="defs48" />
  <sodipodi:namedview
     pagecolor="#ffffff"
     bordercolor="#666666"
     borderopacity="1"
     objecttolerance="10"
     gridtolerance="10"
     guidetolerance="10"
     inkscape:pageopacity="0"
     inkscape:pageshadow="2"
     inkscape:window-width="1920"
     inkscape:window-height="901"
     id="namedview46"
     showgrid="false"
     inkscape:zoom="9.8333333"
     inkscape:cx="11.230699"
     inkscape:cy="23.289075"
     inkscape:window-x="0"
     inkscape:window-y="32"
     inkscape:window-maximized="1"
     inkscape:current-layer="svg44" />
  <g
     id="g881"
     transform="matrix(1.1538462,0,0,1.1538462,-3.6923088,-1.9615395)">
    <path
       id="path2"
       d="M 5,38 V 14 h 38 v 24 c 0,2.2 -1.8,4 -4,4 H 9 C 6.8,42 5,40.2 5,38 Z"
       inkscape:connector-curvature="0"
       style="fill:#cfd8dc" />
    <path
       id="path4"
       d="m 43,10 v 6 H 5 V 10 C 5,7.8 6.8,6 9,6 h 30 c 2.2,0 4,1.8 4,4 z"
       inkscape:connector-curvature="0"
       style="fill:#f44336" />
    <g
       id="g10"
       style="fill:#b71c1c">
      <circle
         id="circle6"
         r="3"
         cy="10"
         cx="33" />
      <circle
         id="circle8"
         r="3"
         cy="10"
         cx="15" />
    </g>
    <g
       id="g16"
       style="fill:#b0bec5">
      <path
         id="path12"
         d="m 33,3 c -1.1,0 -2,0.9 -2,2 v 5 c 0,1.1 0.9,2 2,2 1.1,0 2,-0.9 2,-2 V 5 C 35,3.9 34.1,3 33,3 Z"
         inkscape:connector-curvature="0" />
      <path
         id="path14"
         d="m 15,3 c -1.1,0 -2,0.9 -2,2 v 5 c 0,1.1 0.9,2 2,2 1.1,0 2,-0.9 2,-2 V 5 C 17,3.9 16.1,3 15,3 Z"
         inkscape:connector-curvature="0" />
    </g>
    <g
       id="g42"
       style="fill:#90a4ae">
      <rect
         id="rect18"
         height="4"
         width="4"
         y="20"
         x="13" />
      <rect
         id="rect20"
         height="4"
         width="4"
         y="20"
         x="19" />
      <rect
         id="rect22"
         height="4"
         width="4"
         y="20"
         x="25" />
      <rect
         id="rect24"
         height="4"
         width="4"
         y="20"
         x="31" />
      <rect
         id="rect26"
         height="4"
         width="4"
         y="26"
         x="13" />
      <rect
         id="rect28"
         height="4"
         width="4"
         y="26"
         x="19" />
      <rect
         id="rect30"
         height="4"
         width="4"
         y="26"
         x="25" />
      <rect
         style="fill:#ff0000"
         id="rect32"
         height="4"
         width="4"
         y="26"
         x="31" />
      <rect
         id="rect34"
         height="4"
         width="4"
         y="32"
         x="13" />
      <rect
         id="rect36"
         height="4"
         width="4"
         y="32"
         x="19" />
      <rect
         id="rect38"
         height="4"
         width="4"
         y="32"
         x="25" />
      <rect
         id="rect40"
         height="4"
         width="4"
         y="32"
         x="31" />
    </g>
  </g>
</svg>
